HIERARCHY
ROOT Hips
{
	OFFSET 0.000000 0.000000 0.000000 
	CHANNELS 6 Xposition Yposition Zposition Zrotation Yrotation Xrotation
	JOINT LeftUpLeg
	{
		OFFSET 1.363060 -1.794630 0.839290 
		CHANNELS 3 Zrotation Yrotation Xrotation
		JOINT LeftLeg
		{
			OFFSET 2.448110 -6.726130 0.000000 
			CHANNELS 3 Zrotation Yrotation Xrotation
			JOINT LeftFoot
			{
				OFFSET 2.562200 -7.039590 0.000000 
				CHANNELS 3 Zrotation Yrotation Xrotation
				JOINT LeftToeBase
				{
					OFFSET 0.157640 -0.433110 2.322550 
					CHANNELS 3 Zrotation Yrotation Xrotation
					End Site
					{
						OFFSET 0.000000 0.000000 0.000000 
					}
				}
			}
		}
	}
	JOINT RightUpLeg
	{
		OFFSET -1.305520 -1.794630 0.839290 
		CHANNELS 3 Zrotation Yrotation Xrotation
		JOINT RightLeg
		{
			OFFSET -2.542530 -6.985550 0.000000 
			CHANNELS 3 Zrotation Yrotation Xrotation
			JOINT RightFoot
			{
				OFFSET -2.568260 -7.056230 0.000000 
				CHANNELS 3 Zrotation Yrotation Xrotation
				JOINT RightToeBase
				{
					OFFSET -0.164730 -0.452590 2.363150 
					CHANNELS 3 Zrotation Yrotation Xrotation
					End Site
					{
						OFFSET 0.000000 0.000000 0.000000 
					}
				}
			}
		}
	}
	JOINT Spine
	{
		OFFSET 0.028270 2.035590 -0.193380 
		CHANNELS 3 Zrotation Yrotation Xrotation
		JOINT Spine1
		{
			OFFSET 0.056720 2.048850 -0.042750 
			CHANNELS 3 Zrotation Yrotation Xrotation
			JOINT Neck1
			{
				OFFSET -0.054170 1.746240 0.172020 
				CHANNELS 3 Zrotation Yrotation Xrotation
				JOINT Head
				{
					OFFSET 0.104070 1.761360 -0.123970 
					CHANNELS 3 Zrotation Yrotation Xrotation
					End Site
					{
						OFFSET 0.000000 0.000000 0.000000 
					}
				}
			}
			JOINT LeftArm
			{
				OFFSET 3.362410 1.200890 -0.311210 
				CHANNELS 3 Zrotation Yrotation Xrotation
				JOINT LeftForeArm
				{
					OFFSET 4.983000 -0.000000 -0.000000 
					CHANNELS 3 Zrotation Yrotation Xrotation
					JOINT LeftHand
					{
						OFFSET 3.483560 -0.000000 -0.000000 
						CHANNELS 3 Zrotation Yrotation Xrotation
						JOINT LeftHandIndex1
						{
							OFFSET 0.715260 -0.000000 -0.000000 
							CHANNELS 3 Zrotation Yrotation Xrotation
							End Site
							{
								OFFSET 0.000000 0.000000 0.000000 
							}
						}
					}
				}
			}
			JOINT RightArm
			{
				OFFSET -3.136600 1.374050 -0.404650 
				CHANNELS 3 Zrotation Yrotation Xrotation
				JOINT RightForeArm
				{
					OFFSET -5.241900 -0.000000 -0.000000 
					CHANNELS 3 Zrotation Yrotation Xrotation
					JOINT RightHand
					{
						OFFSET -3.444170 -0.000000 -0.000000 
						CHANNELS 3 Zrotation Yrotation Xrotation
						JOINT RightHandIndex1
						{
							OFFSET -0.622530 -0.000000 -0.000000 
							CHANNELS 3 Zrotation Yrotation Xrotation
							End Site
							{
								OFFSET 0.000000 0.000000 0.000000 
							}
						}
					}
				}
			}
		}
	}
}
MOTION
Frames: 7
Frame Time: 0.041667
6.567215 17.735020 -16.082303 -1.764803 0.252138 2.838031 -4.648180 -2.410847 -9.301147 0.079693 7.331475 20.073962 0.312256 0.634770 2.017981 1.094000 -6.646700 -18.672700 23.565879 -1.020663 -7.010374 -0.690284 -6.971560 18.575779 1.238415 -9.828212 -8.978115 -0.083500 -1.863700 5.129100 0.922071 -2.250386 -2.798286 3.533162 -0.878104 0.083622 7.724149 -17.065125 5.960034 4.782400 -8.665400 5.713500 -51.463694 -19.909918 16.786754 112.390653 -61.244886 -80.970682 0.547550 -0.373148 16.671492 -7.125000 0.000000 0.000000 54.021000 29.206116 25.389186 -118.018661 55.844478 -83.598749 -0.121211 -0.340732 9.245902 7.125000 0.000000 0.000000 
6.595980 17.730594 -16.082706 -2.281298 0.184852 2.829699 -4.194653 -2.269091 -9.476526 0.144432 7.448500 20.434686 0.376533 0.339483 1.679615 0.792700 -5.683300 -15.868300 24.106061 -0.785989 -6.675845 -0.646290 -6.845483 18.203245 1.293204 -10.114325 -8.876479 -0.077400 -1.794800 4.939000 0.976802 -2.181708 -2.733381 3.507243 -0.853818 0.623459 7.117750 -16.934117 7.381249 4.387400 -8.616800 6.484400 -51.327588 -20.847190 16.655905 111.811283 -61.344214 -80.521864 0.554020 -0.373107 16.870708 -7.125000 0.000000 0.000000 53.729930 29.429138 24.945107 -117.998559 55.875520 -83.583241 -0.123390 -0.338708 9.194006 7.125000 0.000000 0.000000 
6.626959 17.729790 -16.085522 -2.401428 0.151377 2.704805 -4.136209 -2.170974 -9.391587 0.132771 7.404453 20.318999 0.426879 0.104530 1.456080 0.528200 -4.657300 -12.933800 24.162853 -0.646079 -6.621467 -0.669310 -6.902442 18.397455 1.304945 -10.190825 -9.031482 -0.066500 -1.663700 4.577000 1.084026 -2.312173 -3.002608 4.102506 -0.876553 -0.819427 7.591672 -16.130382 7.530006 4.845300 -8.287500 6.354400 -51.823737 -19.955437 16.961846 111.584775 -61.304602 -80.378102 0.577758 -0.378672 16.941392 -7.125000 0.000000 0.000000 53.534756 28.666489 25.647612 -118.081707 55.771261 -83.673635 -0.104908 -0.334544 9.069186 7.125000 0.000000 0.000000 
6.663066 17.727979 -16.084315 -2.175786 0.084648 2.622381 -4.558848 -1.837037 -9.305720 0.109482 7.363386 20.191762 0.417988 0.130220 1.172301 0.465200 -4.374700 -12.133400 23.739194 -0.696313 -6.693818 -0.703347 -7.005653 18.694560 1.270472 -10.020103 -9.142871 -0.060100 -1.582100 4.352000 1.028827 -2.390099 -2.997001 3.956053 -0.920612 -0.785994 7.707913 -15.598431 7.888379 4.963600 -8.040200 6.395300 -51.615995 -20.056039 16.812288 111.303869 -61.361463 -80.164606 0.589637 -0.384946 16.891316 -7.125000 0.000000 0.000000 53.789761 28.843192 25.886202 -117.901587 55.795902 -83.512476 -0.108735 -0.340295 9.054372 7.125000 0.000000 0.000000 
6.699979 17.720436 -16.081398 -1.742215 -0.067260 2.671468 -5.265887 -1.438598 -9.203601 0.054148 7.277145 19.901046 0.311474 0.610817 0.765099 0.600600 -4.960900 -13.796900 23.057624 -0.710821 -6.978482 -0.755679 -7.170756 19.153012 1.208391 -9.701949 -9.238582 -0.061000 -1.594200 4.385500 0.975621 -2.286998 -2.806195 3.990488 -0.905952 0.306447 7.407963 -15.370598 8.244903 4.777400 -7.915800 6.466700 -51.685930 -21.308284 16.723239 110.748499 -61.499545 -79.703129 0.591248 -0.376334 16.984879 -7.125000 0.000000 0.000000 53.607564 29.531042 25.369429 -117.657369 55.931021 -83.267540 -0.120011 -0.347821 8.974646 7.125000 0.000000 0.000000 
6.739004 17.706254 -16.077576 -1.417854 -0.129377 2.578827 -5.929016 -0.990132 -9.043912 0.000824 7.181047 19.594133 0.165304 1.268637 0.317348 1.044000 -6.498100 -18.236600 22.482808 -0.893431 -7.196610 -0.810930 -7.328174 19.611201 1.132395 -9.315874 -9.412900 -0.073100 -1.744800 4.800900 0.921362 -2.220077 -2.823123 3.901717 -0.874901 0.266257 6.911444 -15.041206 8.805518 4.488000 -7.765800 6.638300 -51.790088 -21.754585 17.012706 110.244817 -61.554933 -79.303270 0.601437 -0.377625 17.191238 -7.125000 0.000000 0.000000 53.538098 29.521961 25.242340 -117.607088 55.910071 -83.227425 -0.116840 -0.353937 8.845989 7.125000 0.000000 0.000000 
6.777727 17.700219 -16.075766 -1.295591 -0.192859 2.503462 -6.351789 -0.530190 -8.977051 -0.032229 7.113261 19.378955 0.054572 1.767599 0.058458 1.199600 -6.949200 -19.565100 22.151163 -1.098637 -7.343812 -0.849504 -7.433603 19.918832 1.065880 -8.964380 -9.474745 -0.085500 -1.886300 5.191600 0.887790 -2.166362 -2.807888 3.809556 -0.854390 0.349835 6.827683 -14.659928 9.148053 4.461000 -7.582700 6.791100 -51.595004 -22.070374 17.090380 110.203543 -61.548544 -79.271976 0.596719 -0.383460 17.266734 -7.125000 0.000000 0.000000 53.449682 29.636048 24.979520 -117.471088 55.960985 -83.124011 -0.118791 -0.346742 8.866770 7.125000 0.000000 0.000000 
